<svg width="1353" height="1000" viewBox="0 0 1353 974" fill="none" xmlns="http://www.w3.org/2000/svg">
<path d="M1553.98 404.461C1553.98 404.461 1388.6 334.951 1290.15 377.513C1192.05 419.94 1107.55 561.939 1008.44 609.105C900.135 660.654 754.132 586.669 706.13 487.783C658.128 388.897 632.354 272.775 528.017 297.519C423.679 322.264 333.884 329.043 212.884 208.452L-0.000494955 -10.0426L1149.48 -504.001L1553.98 404.461Z" fill="#41cc7b" fill-opacity="0.05"/>
<path d="M1536.4 374.001C1536.4 374.001 1342.59 290.439 1244.14 333C1146.04 375.428 1092 499.841 992.89 547.007C884.59 598.555 782.236 529.829 734.234 430.943C686.232 332.057 671.292 199.527 566.954 224.272C462.617 249.016 361.988 272.203 240.988 151.613L85.6894 -6.4224L1129.48 -504.002L1536.4 374.001Z" fill="#41cc7b"/>
<mask id="mask0_287_14631" style="mask-type:alpha" maskUnits="userSpaceOnUse" x="95" y="-505" width="1442" height="1070">
<path d="M1536.4 374.001C1536.4 374.001 1342.59 290.439 1244.14 333C1146.04 375.428 1092 499.841 992.89 547.007C884.59 598.555 782.236 529.829 734.234 430.943C686.232 332.057 671.292 199.527 566.954 224.272C462.617 249.016 361.988 272.203 240.988 151.613L95.6894 -6.42235L1029.48 -504.001L1361 -111.002L1536.4 374.001Z" fill="#41cc7b"/>
</mask>
<g mask="url(#mask0_287_14631)">
<path d="M1056.15 -421.248C1072.99 -430.967 1090.37 -436.426 1108.17 -437.528C1163.05 -440.946 1220.1 -403.047 1273.1 -327.932L1270.83 -326.275C1218.49 -400.456 1162.36 -437.897 1108.54 -434.554C1078.05 -432.648 1048.7 -417.649 1021.3 -389.954C992.229 -360.582 965.428 -316.959 941.644 -260.313C881.28 -116.508 765.077 -88.9422 671.704 -66.8032C617.915 -54.0509 571.46 -43.0211 546.807 -12.8486C523.422 15.782 505.193 76.8657 494.101 163.789C485.704 229.611 484.125 287.687 484.109 288.264L481.434 288.581C481.45 288.005 482.835 229.201 491.253 163.218C496.201 124.445 502.562 90.5819 510.186 62.5553C519.734 27.4071 531.304 1.35686 544.564 -14.8764C569.78 -45.7383 616.625 -56.8455 670.881 -69.7186C763.681 -91.7288 879.17 -119.126 939.014 -261.672C962.93 -318.65 989.923 -362.546 1019.23 -392.177C1031.18 -404.238 1043.52 -413.953 1056.15 -421.248Z" fill=""/>
<path d="M828.879 -508.79C842.624 -522.535 858.005 -532.308 874.908 -537.978C927.041 -555.486 991.952 -533.643 1062.58 -474.803L1060.83 -472.618C991.069 -530.724 927.158 -552.36 876.035 -535.201C847.081 -525.47 822.615 -503.386 803.312 -469.541C782.836 -433.647 768.239 -384.573 759.927 -323.702C738.839 -169.174 633.73 -112.472 549.268 -66.9205C500.612 -40.681 458.596 -18.0038 442.592 17.5213C427.413 51.229 425.615 114.949 437.399 201.781C446.324 267.534 459.83 324.04 459.964 324.601L457.462 325.6C457.328 325.039 443.447 267.88 434.5 201.967C429.244 163.234 426.624 128.879 426.735 99.8341C426.86 63.4126 431.293 35.2553 439.901 16.1431C456.269 -20.1933 498.644 -43.0467 547.719 -69.5236C631.66 -114.802 736.123 -171.157 757.035 -324.334C765.388 -385.561 780.1 -434.948 800.738 -471.153C809.162 -485.897 818.562 -498.474 828.879 -508.79Z" fill=""/>
<path d="M534.208 -606.418C544.899 -624.935 558.459 -639.697 574.803 -650.533C625.209 -683.976 700.393 -679.248 792.186 -636.84L790.944 -634.019C700.285 -675.895 626.223 -680.689 576.792 -647.903C548.799 -629.322 529.091 -598.893 518.218 -557.439C506.682 -513.473 505.144 -457.179 513.641 -390.139C535.228 -219.954 439.696 -129.787 362.926 -57.3453C318.701 -15.615 280.516 20.4402 273.626 62.7405C267.095 102.875 283.325 171.088 320.565 259.989C348.766 327.309 379.202 383.499 379.504 384.057L377.13 385.831C376.828 385.273 345.808 328.495 317.538 261.012C300.926 221.356 288.363 185.6 280.211 154.71C269.975 115.977 266.67 84.799 270.374 62.0426C277.42 18.7765 315.936 -17.568 360.539 -59.6699C436.833 -131.674 531.778 -221.288 510.389 -389.987C501.834 -457.417 503.404 -514.076 515.024 -558.419C519.777 -576.482 526.184 -592.52 534.208 -606.418Z" fill=""/>
<path d="M609.268 -602.41C619.959 -620.927 633.518 -635.689 649.863 -646.525C700.269 -679.968 775.453 -675.24 867.246 -632.832L866.003 -630.011C775.345 -671.887 701.283 -676.681 651.851 -643.895C623.858 -625.314 604.151 -594.886 593.277 -553.431C581.741 -509.466 580.203 -453.171 588.701 -386.131C610.287 -215.946 514.756 -125.78 437.986 -53.3375C393.76 -11.6072 355.575 24.4481 348.685 66.7483C342.154 106.883 358.384 175.095 395.624 263.997C423.825 331.316 454.262 387.507 454.564 388.065L452.19 389.839C451.888 389.28 420.867 332.503 392.597 265.02C375.986 225.364 363.422 189.608 355.271 158.717C345.035 119.985 341.73 88.8068 345.433 66.0504C352.48 22.7843 390.995 -13.5602 435.599 -55.6621C511.892 -127.666 606.838 -217.28 585.448 -385.979C576.893 -453.409 578.464 -510.068 590.084 -554.411C594.837 -572.474 601.244 -588.512 609.268 -602.41Z" fill=""/>
<path d="M325.908 -449.205C336.599 -467.722 350.158 -482.484 366.503 -493.32C416.909 -526.763 492.093 -522.035 583.886 -479.627L582.643 -476.806C491.985 -518.682 417.923 -523.476 368.491 -490.69C340.498 -472.109 320.791 -441.68 309.917 -400.226C298.381 -356.261 296.843 -299.966 305.341 -232.926C326.927 -62.7414 231.396 27.4255 154.626 99.8676C110.4 141.598 72.2151 177.653 65.3252 219.953C58.7942 260.088 75.0243 328.301 112.264 417.202C140.465 484.522 170.902 540.712 171.204 541.27L168.83 543.044C168.528 542.486 137.507 485.708 109.237 418.225C92.6257 378.569 80.0621 342.813 71.9104 311.923C61.6746 273.19 58.3694 242.012 62.0731 219.255C69.1195 175.989 107.635 139.645 152.238 97.543C228.532 25.5392 323.477 -64.0748 302.088 -232.774C293.533 -300.204 295.104 -356.863 306.724 -401.206C311.477 -419.269 317.884 -435.307 325.908 -449.205Z" fill=""/>
<path d="M1232.03 -353.052C1250.55 -363.743 1269.67 -369.747 1289.24 -370.959C1349.62 -374.719 1412.37 -333.032 1470.66 -250.409L1468.17 -248.587C1410.6 -330.182 1348.85 -371.365 1289.65 -367.688C1256.12 -365.592 1223.84 -349.094 1193.69 -318.63C1161.72 -286.323 1132.24 -238.339 1106.08 -176.032C1039.68 -17.8547 911.865 12.4662 809.159 36.8179C749.994 50.8448 698.897 62.9769 671.78 96.1651C646.056 127.657 626.006 194.846 613.806 290.457C604.569 362.858 602.833 426.738 602.815 427.373L599.872 427.722C599.89 427.087 601.414 362.406 610.673 289.829C616.115 247.18 623.112 209.933 631.498 179.105C642 140.444 654.727 111.79 669.312 93.9346C697.048 59.9882 748.575 47.7708 808.254 33.6111C910.328 9.40107 1037.36 -20.7344 1103.19 -177.527C1129.49 -240.2 1159.18 -288.484 1191.42 -321.075C1204.56 -334.342 1218.13 -345.028 1232.03 -353.052Z" fill=""/>
<path d="M589.775 30.1498C574.656 45.2686 563.907 62.1868 557.67 80.7789C538.412 138.123 562.439 209.522 627.159 287.211L629.563 285.28C565.649 208.55 541.85 138.252 560.725 82.0191C571.428 50.171 595.719 23.2595 632.946 2.02732C672.428 -20.495 726.407 -36.5507 793.362 -45.6939C963.334 -68.8898 1025.7 -184.503 1075.81 -277.407C1104.67 -330.926 1129.61 -377.142 1168.69 -394.745C1205.77 -411.441 1275.85 -413.419 1371.37 -400.457C1443.69 -390.64 1505.84 -375.784 1506.46 -375.637L1507.56 -378.389C1506.94 -378.536 1444.07 -393.805 1371.57 -403.646C1328.97 -409.427 1291.18 -412.308 1259.23 -412.187C1219.17 -412.05 1188.2 -407.173 1167.17 -397.705C1127.2 -379.701 1102.07 -333.091 1072.94 -279.111C1023.14 -186.781 961.153 -71.877 792.667 -48.875C725.32 -39.6862 670.998 -23.5045 631.174 -0.803755C614.956 8.46246 601.123 18.8022 589.775 30.1498Z" fill=""/>
<path d="M1268.53 -289.831C1287.05 -300.522 1306.17 -306.526 1325.74 -307.738C1386.12 -311.498 1448.87 -269.811 1507.16 -187.189L1504.67 -185.367C1447.1 -266.962 1385.35 -308.144 1326.15 -304.467C1292.62 -302.371 1260.34 -285.873 1230.19 -255.41C1198.22 -223.102 1168.74 -175.119 1142.58 -112.812C1076.18 45.366 948.365 75.6869 845.659 100.039C786.494 114.065 735.397 126.198 708.28 159.386C682.556 190.878 662.506 258.067 650.306 353.677C641.069 426.078 639.333 489.959 639.315 490.593L636.372 490.942C636.39 490.308 637.914 425.627 647.173 353.05C652.615 310.401 659.612 273.154 667.998 242.326C678.5 203.665 691.227 175.011 705.812 157.155C733.548 123.209 785.075 110.992 844.754 96.8318C946.828 72.6218 1073.86 42.4863 1139.69 -114.306C1165.99 -176.979 1195.68 -225.263 1227.92 -257.855C1241.06 -271.121 1254.63 -281.807 1268.53 -289.831Z" fill=""/>
<path d="M714.275 245.788C699.156 260.907 688.407 277.825 682.17 296.418C662.912 353.762 686.939 425.161 751.659 502.85L754.063 500.919C690.149 424.188 666.35 353.89 685.225 297.658C695.928 265.81 720.219 238.898 757.446 217.666C796.928 195.144 850.907 179.088 917.862 169.945C1087.83 146.749 1150.2 31.1354 1200.31 -61.7681C1229.17 -115.287 1254.11 -161.503 1293.19 -179.106C1330.27 -195.802 1400.35 -197.78 1495.87 -184.818C1568.19 -175.002 1630.34 -160.145 1630.96 -159.998L1632.06 -162.751C1631.44 -162.898 1568.57 -178.166 1496.07 -188.007C1453.47 -193.789 1415.68 -196.67 1383.73 -196.549C1343.67 -196.411 1312.7 -191.534 1291.67 -182.067C1251.7 -164.062 1226.57 -117.452 1197.44 -63.4723C1147.64 28.8579 1085.65 143.762 917.167 166.764C849.82 175.952 795.498 192.134 755.674 214.835C739.456 224.101 725.623 234.441 714.275 245.788Z" fill=""/>
<path d="M1349.53 -149.536C1368.05 -160.227 1387.17 -166.231 1406.74 -167.443C1467.12 -171.203 1529.87 -129.516 1588.16 -46.8936L1585.67 -45.0716C1528.1 -126.667 1466.35 -167.849 1407.15 -164.172C1373.62 -162.076 1341.34 -145.578 1311.19 -115.115C1279.22 -82.8071 1249.74 -34.8237 1223.58 27.4835C1157.18 185.661 1029.37 215.982 926.659 240.334C867.494 254.361 816.397 266.493 789.28 299.681C763.557 331.173 743.506 398.362 731.306 493.973C722.069 566.374 720.333 630.254 720.315 630.888L717.372 631.237C717.39 630.603 718.914 565.922 728.173 493.345C733.615 450.696 740.613 413.449 748.998 382.621C759.5 343.96 772.227 315.306 786.813 297.45C814.548 263.504 866.076 251.287 925.754 237.127C1027.83 212.917 1154.86 182.781 1220.69 25.9889C1246.99 -36.6844 1276.68 -84.9679 1308.92 -117.56C1322.06 -130.826 1335.63 -141.512 1349.53 -149.536Z" fill=""/>
<path d="M1318.65 -37.0226C1337.17 -47.7132 1356.29 -53.7176 1375.86 -54.9294C1436.24 -58.6895 1498.99 -17.0025 1557.28 65.62L1554.79 67.4421C1497.22 -14.153 1435.47 -55.3353 1376.27 -51.6582C1342.74 -49.5626 1310.46 -33.0644 1280.31 -2.60084C1248.34 29.7065 1218.86 77.69 1192.7 139.997C1126.3 298.175 998.485 328.496 895.779 352.847C836.614 366.874 785.517 379.006 758.4 412.195C732.677 443.687 712.626 510.875 700.426 606.486C691.189 678.887 689.453 742.768 689.435 743.402L686.492 743.751C686.51 743.117 688.034 678.435 697.293 605.858C702.735 563.21 709.733 525.962 718.118 495.135C728.62 456.474 741.347 427.82 755.932 409.964C783.668 376.018 835.196 363.8 894.874 349.641C996.949 325.43 1123.98 295.295 1189.81 138.503C1216.11 75.8293 1245.8 27.5458 1278.04 -5.04594C1291.18 -18.3125 1304.75 -28.9987 1318.65 -37.0226Z" fill=""/>
<path d="M778.242 460.583C763.123 475.702 752.374 492.62 746.137 511.213C726.879 568.557 750.906 639.955 815.626 717.645L818.03 715.714C754.116 638.983 730.317 568.685 749.192 512.453C759.895 480.605 784.186 453.693 821.413 432.461C860.895 409.939 914.873 393.883 981.828 384.74C1151.8 361.544 1214.17 245.93 1264.27 153.027C1293.14 99.5079 1318.08 53.2921 1357.16 35.6888C1394.23 18.9927 1464.32 17.0151 1559.83 29.9767C1632.16 39.7932 1694.31 54.6497 1694.93 54.7967L1696.03 52.0444C1695.41 51.8974 1632.54 36.6289 1560.04 26.7879C1517.43 21.0064 1479.64 18.1251 1447.7 18.2463C1407.63 18.3839 1376.66 23.2609 1355.64 32.7282C1315.67 50.7326 1290.53 97.3425 1261.41 151.323C1211.61 243.653 1149.62 358.557 981.133 381.559C913.787 390.747 859.465 406.929 819.64 429.63C803.423 438.896 789.589 449.236 778.242 460.583Z" fill=""/>
<path d="M1415.68 27.0457C1434.2 16.3551 1453.32 10.3507 1472.9 9.13885C1533.27 5.37886 1596.02 47.0658 1654.31 129.688L1651.82 131.51C1594.25 49.9153 1532.51 8.73301 1473.3 12.4101C1439.77 14.5057 1407.49 31.0039 1377.35 61.4674C1345.37 93.7748 1315.89 141.758 1289.73 204.065C1223.33 362.243 1095.52 392.564 992.812 416.916C933.647 430.942 882.55 443.075 855.433 476.263C829.709 507.755 809.659 574.944 797.459 670.554C788.222 742.955 786.486 806.836 786.468 807.47L783.525 807.819C783.543 807.185 785.067 742.504 794.326 669.927C799.768 627.278 806.765 590.031 815.151 559.203C825.653 520.542 838.38 491.888 852.965 474.032C880.701 440.086 932.229 427.868 991.907 413.709C1093.98 389.499 1221.01 359.363 1286.84 202.571C1313.15 139.898 1342.84 91.6141 1375.07 59.0223C1388.22 45.7557 1401.79 35.0696 1415.68 27.0457Z" fill=""/>
<path d="M883.677 545.202C868.558 560.321 857.809 577.24 851.572 595.832C832.314 653.176 856.341 724.575 921.061 802.264L923.465 800.333C859.551 723.602 835.752 653.305 854.627 597.072C865.33 565.224 889.621 538.312 926.848 517.08C966.33 494.558 1020.31 478.502 1087.26 469.359C1257.24 446.163 1319.61 330.549 1369.71 237.646C1398.57 184.127 1423.52 137.911 1462.59 120.308C1499.67 103.612 1569.76 101.634 1665.27 114.596C1737.59 124.412 1799.74 139.269 1800.36 139.416L1801.46 136.664C1800.84 136.516 1737.97 121.248 1665.47 111.407C1622.87 105.626 1585.08 102.744 1553.13 102.865C1513.07 103.003 1482.1 107.88 1461.07 117.347C1421.11 135.352 1395.97 181.962 1366.85 235.942C1317.04 328.272 1255.06 443.176 1086.57 466.178C1019.22 475.367 964.9 491.548 925.076 514.249C908.858 523.515 895.024 533.855 883.677 545.202Z" fill=""/>
</g>
</svg>
